<svg width="55" height="39" viewBox="0 0 55 39" fill="none" xmlns="http://www.w3.org/2000/svg">
<path d="M54.3039 9.01469C54.3039 9.01469 53.7741 5.36438 52.1528 3.757C50.0971 1.64666 47.787 1.63629 46.7326 1.51185C39.156 0.977783 27.7965 0.977783 27.7965 0.977783H27.7753C27.7753 0.977783 16.4157 0.977783 8.83913 1.51185C7.78476 1.63629 5.4747 1.64666 3.41896 3.757C1.79768 5.36438 1.26784 9.01469 1.26784 9.01469C1.26784 9.01469 0.727417 13.2976 0.727417 17.5857V21.6041C0.727417 25.8922 1.26784 30.1751 1.26784 30.1751C1.26784 30.1751 1.79768 33.8254 3.41896 35.4328C5.48 37.5431 8.18214 37.4757 9.38485 37.6987C13.7136 38.1031 27.7859 38.2328 27.7859 38.2328C27.7859 38.2328 39.156 38.2172 46.7326 37.6779C47.7923 37.5535 50.0971 37.5431 52.1528 35.4328C53.7741 33.8254 54.3039 30.1751 54.3039 30.1751C54.3039 30.1751 54.8443 25.887 54.8443 21.6041V17.5857C54.8443 13.2976 54.3039 9.01469 54.3039 9.01469ZM22.1962 26.4729V11.5917L36.8195 19.0582L22.1962 26.4729Z" fill="#282928" fill-opacity="0.8"/>
<path d="M22.1962 26.4728L36.8195 19.0581L22.1962 11.5917V26.4728Z" fill="white"/>
<path opacity="0.12" fill-rule="evenodd" clip-rule="evenodd" d="M22.1962 11.5917L35.0181 19.9707L36.8195 19.0581L22.1962 11.5917Z" fill="black"/>
</svg>
