<svg width="48" height="48" viewBox="0 0 48 48" fill="none" xmlns="http://www.w3.org/2000/svg">
<circle cx="23.8693" cy="23.7035" r="22.4271" stroke="#27AE60" stroke-width="2"/>
<path d="M38.6995 17.1988L36.9861 18.1881L36.4895 17.3281L34.776 18.3174L34.4037 17.6724L31.5355 17.3216L30.1078 18.1459L27.3769 13.4159C26.9663 12.7047 26.0555 12.4588 25.347 12.8679L24.9186 13.1152L24.6704 12.6852C24.2597 11.9739 23.349 11.7281 22.6405 12.1371L10.6461 19.0621C10.0884 19.3841 9.82544 20.0169 9.93633 20.6185L6.43054 22.6426L7.92012 25.2226L11.3471 23.2441L12.3858 25.0432C11.9912 25.5083 11.9049 26.1888 12.2282 26.7487L13.966 29.7587L11.3958 31.2426L15.368 38.1227L17.9382 36.6388L18.1865 37.0688C18.5971 37.78 19.5078 38.0259 20.2164 37.6168L33.0675 30.1972C33.6252 29.8752 33.8881 29.2424 33.7772 28.6408L34.2844 28.3479C34.8422 28.0259 35.1051 27.3931 34.9942 26.7915L36.5012 25.9214L37.6311 23.2624L37.2587 22.6174L38.9721 21.6281L38.4756 20.7681L40.1891 19.7788L38.6995 17.1988ZM23.8136 13.1798L24.0619 13.6098L22.3484 14.5991L24.3345 18.0391L14.9103 23.4801L12.4277 19.1801L23.137 12.9971C23.373 12.8609 23.6766 12.9424 23.8136 13.1798ZM11.1426 19.9221L11.571 19.6748L14.0536 23.9748L13.1969 24.4694L10.9625 20.5994C10.8255 20.362 10.9066 20.0584 11.1426 19.9221ZM8.28033 23.868L7.78381 23.008L10.354 21.524L10.8506 22.384L8.28033 23.868ZM14.4625 30.6187L15.0971 31.7178C14.7585 31.7161 14.4159 31.7923 14.1023 31.9734C13.7887 32.1544 13.5514 32.413 13.3836 32.7071L12.749 31.608L14.4625 30.6187ZM15.9521 33.1987C16.2259 33.673 16.0644 34.2806 15.5919 34.5534C15.1194 34.8262 14.5125 34.6623 14.2386 34.188C13.9648 33.7137 14.1263 33.1062 14.5988 32.8334C15.0713 32.5606 15.6783 32.7244 15.9521 33.1987ZM15.7282 36.768L15.0936 35.6689C15.4322 35.6707 15.7748 35.5944 16.0884 35.4134C16.402 35.2324 16.6394 34.9738 16.8071 34.6797L17.4417 35.7788L15.7282 36.768ZM32.7511 28.6599C32.8881 28.8973 32.807 29.2009 32.5709 29.3372L21.8617 35.5202L16.1517 25.6302L15.2949 26.1248L21.0049 36.0148L19.7198 36.7568C19.4838 36.8931 19.1802 36.8115 19.0432 36.5741L13.0849 26.2541C12.9479 26.0167 13.029 25.713 13.265 25.5767L23.9743 19.3938L29.9326 29.7138L30.7893 29.2192L24.831 18.8991L26.1161 18.1572C26.3522 18.0209 26.6557 18.1025 26.7928 18.3398L32.7511 28.6599ZM33.968 26.8106C34.1051 27.048 34.0239 27.3517 33.7879 27.4879L33.3595 27.7352L27.6495 17.8452C27.2389 17.134 26.3281 16.8881 25.6196 17.2971L25.1912 17.5445L23.7017 14.9645L25.8435 13.7279C26.0796 13.5916 26.3831 13.6732 26.5202 13.9105L33.968 26.8106ZM36.5261 23.327L35.719 25.2264L34.5765 25.886L30.6043 19.0059L31.7468 18.3463L33.7952 18.597L36.5261 23.327ZM37.6189 21.2628L36.7621 21.7574L35.2726 19.1774L36.1293 18.6827L37.6189 21.2628ZM38.8358 19.4135L37.9791 19.9081L37.4826 19.0481L38.3393 18.5535L38.8358 19.4135Z" fill="#27AE60"/>
</svg>
