<svg width="48" height="49" viewBox="0 0 48 49" fill="none" xmlns="http://www.w3.org/2000/svg">
<path d="M18.6375 28.1312C18.4153 27.9023 18.056 27.9023 17.8337 28.1312L11.4025 34.7536C11.1802 34.9824 11.1802 35.3524 11.4025 35.5812C11.5133 35.6954 11.6588 35.7527 11.8044 35.7527C11.9499 35.7527 12.0954 35.6954 12.2063 35.5812L18.6375 28.9588C18.8598 28.73 18.8598 28.3595 18.6375 28.1312Z" fill="#27AE60"/>
<path d="M19.4413 29.7866L13.01 36.409C12.7878 36.6379 12.7878 37.0078 13.01 37.2367C13.1209 37.3508 13.2664 37.4082 13.4119 37.4082C13.5575 37.4082 13.703 37.3508 13.8139 37.2367L20.2451 30.6143C20.4674 30.3854 20.4674 30.0155 20.2451 29.7866C20.0228 29.5578 19.6636 29.5578 19.4413 29.7866Z" fill="#27AE60"/>
<path d="M29.8941 26.8823L26.8823 23.7813L33.7837 16.6761H35.156C35.3072 16.6761 35.4516 16.6146 35.5579 16.5046L37.97 14.0211C38.0769 13.911 38.1366 13.7624 38.1366 13.6073C38.1366 13.4522 38.0769 13.3029 37.97 13.1934L34.7541 9.88228C34.5318 9.65342 34.1725 9.65342 33.9503 9.88228L31.5382 12.3652C31.4313 12.4753 31.3716 12.6239 31.3716 12.779V14.192L24.4708 21.2978C23.713 20.517 22.0866 18.8424 21.4595 18.1968C22.1809 15.9046 21.6016 13.3761 19.9337 11.6599C18.3419 10.0204 16.0015 9.39002 13.8259 10.0146C13.6315 10.0708 13.4803 10.2288 13.4291 10.4296C13.3779 10.6303 13.4342 10.8451 13.5769 10.9926L15.7104 13.1893L15.0482 15.7343L12.5752 16.4168L10.4423 14.2207C10.2996 14.0732 10.0915 14.0152 9.89654 14.0685C9.70099 14.1212 9.5475 14.2769 9.49349 14.4776C8.88635 16.7165 9.49861 19.1257 11.0904 20.7657C12.7577 22.4825 15.2136 23.0783 17.4392 22.3362L20.4505 25.4372L19.704 26.2057C19.251 25.9827 18.753 25.861 18.2356 25.861C17.3244 25.861 16.4682 26.2262 15.8241 26.89L10.1956 32.6835C8.86645 34.0531 8.86645 36.2808 10.1956 37.6505L11 38.4781C11.6441 39.1419 12.5008 39.5071 13.4121 39.5071C14.3233 39.5071 15.1795 39.1419 15.8236 38.4781L21.451 32.6835C22.0957 32.0209 22.4504 31.1388 22.4504 30.2011C22.4504 29.6685 22.3321 29.1557 22.1155 28.6892L22.862 27.9207L25.8738 31.0217C25.1524 33.3139 25.7322 35.8419 27.3996 37.5586C28.5855 38.7796 30.1852 39.441 31.8236 39.441C32.3852 39.441 32.952 39.3631 33.5074 39.2034C33.7024 39.1472 33.853 38.9897 33.9042 38.7884C33.9559 38.587 33.8991 38.3728 33.7564 38.2259L31.6229 36.0292L32.2852 33.4836L34.7575 32.8017L36.891 34.9984C37.0337 35.1459 37.2418 35.2044 37.4373 35.1506C37.6329 35.0979 37.7864 34.9428 37.8404 34.742C38.447 32.5032 37.8347 30.0934 36.2424 28.4539C34.5756 26.736 32.1192 26.139 29.8941 26.8823ZM17.9889 21.2463C17.8297 21.0818 17.5893 21.0297 17.3795 21.1152C15.4859 21.8796 13.3319 21.4178 11.8942 19.9381C10.8391 18.8512 10.3098 17.3504 10.4116 15.8449L12.0033 17.4838C12.1466 17.6319 12.3569 17.6899 12.5525 17.6354L15.6593 16.7779C15.8554 16.7241 16.0089 16.5661 16.0612 16.3641L16.8934 13.1665C16.9463 12.9646 16.89 12.7492 16.7462 12.6011L15.1539 10.961C16.6138 10.8533 18.0742 11.4006 19.1299 12.4875C20.567 13.9666 21.0161 16.1838 20.2782 18.1248C20.1327 18.4865 20.1327 18.4865 22.2344 20.6504L23.6669 22.1254L21.2549 24.609L17.9889 21.2463ZM32.342 14.8487C32.4489 14.7387 32.5086 14.59 32.5086 14.4349V13.0219L34.3522 11.1243L36.7643 13.6073L34.9207 15.5055H33.5483C33.3971 15.5055 33.2527 15.5669 33.1464 15.677L21.4521 27.7176L20.6477 26.89L32.342 14.8487ZM20.6472 31.8558L15.0192 37.6505C14.1607 38.5355 12.6628 38.5355 11.8038 37.6505L10.9994 36.8229C10.1126 35.9098 10.1126 34.4236 10.9994 33.5111L16.628 27.7176C17.0572 27.2751 17.6279 27.0316 18.2356 27.0316C18.8434 27.0316 19.4141 27.2751 19.8433 27.7176L20.6472 28.5452C21.0769 28.9877 21.3134 29.576 21.3134 30.2011C21.3134 30.8262 21.0769 31.4139 20.6472 31.8558ZM36.9217 33.3741L35.3294 31.7347C35.1861 31.5866 34.9781 31.5275 34.7802 31.5831L31.674 32.44C31.4779 32.4944 31.325 32.6519 31.2721 32.8538L30.4399 36.052C30.387 36.2539 30.4433 36.4693 30.5871 36.6174L32.18 38.2575C30.715 38.3628 29.2591 37.8179 28.2034 36.731C26.7669 35.2519 26.3178 33.0347 27.0597 31.0832C27.1421 30.8666 27.0921 30.6208 26.9317 30.4563L23.6658 27.0936L26.0785 24.609L29.3444 27.9716C29.5047 28.1367 29.7429 28.1888 29.9538 28.1027C31.8486 27.3389 34.0026 27.8007 35.4385 29.281C36.4942 30.3673 37.0235 31.8681 36.9217 33.3741Z" fill="#27AE60"/>
<circle cx="23.8218" cy="24.3604" r="22.665" stroke="#27AE60" stroke-width="2"/>
</svg>
